<?xml version='1.0' encoding='utf-8'?>
<svg xmlns="http://www.w3.org/2000/svg" version="1.0" width="1094.345445pt" height="620.411970pt" viewBox="0 0 1094.345445 620.411970" preserveAspectRatio="xMinYMin meet">

<g transform="translate(-413.383432,-230.434971) translate(0.000000,1080.000000) scale(0.100000,-0.100000)" fill="#000000" stroke="none">
<path d="M7265 8364 c-14 -15 -25 -31 -25 -36 0 -9 -41 -105 -61 -140 -5 -10 -9 -22 -9 -28 0 -5 -11 -34 -25 -64 -30 -65 -31 -81 -7 -71 14 5 15 4 5 -6 -7 -7 -13 -23 -13 -35 0 -13 -4 -26 -10 -29 -5 -3 -10 -13 -10 -21 0 -8 -17 -52 -39 -97 -70 -149 -101 -216 -101 -223 0 -3 -10 -27 -23 -53 -13 -25 -24 -49 -25 -53 -1 -5 -13 -32 -26 -60 -13 -29 -36 -82 -51 -118 -15 -36 -34 -81 -42 -100 -16 -37 -47 -104 -106 -230 -33 -72 -49 -109 -51 -120 -1 -3 -9 -22 -19 -42 -16 -36 -40 -90 -57 -133 -14 -33 -101 -228 -116 -259 -8 -16 -14 -35 -14 -43 0 -7 -4 -13 -10 -13 -5 0 -10 -9 -10 -19 0 -11 -9 -36 -19 -58 -24 -47 -43 -92 -70 -161 -12 -29 -32 -74 -45 -101 -14 -26 -34 -73 -45 -105 l-20 -56 21 -19 c11 -11 35 -22 55 -26 19 -3 53 -17 76 -31 92 -54 225 -112 335 -144 35 -11 83 -31 107 -45 24 -14 52 -25 62 -25 19 0 55 46 73 95 6 16 27 63 47 105 20 41 46 102 58 135 11 33 27 60 34 60 6 0 30 -33 53 -74 22 -41 58 -98 79 -126 22 -29 39 -55 39 -59 0 -19 63 -97 75 -92 17 6 45 -25 85 -94 62 -105 80 -144 75 -160 -6 -18 10 -59 55 -135 l28 -50 -30 -55 c-16 -30 -38 -66 -49 -81 -10 -15 -19 -30 -19 -34 0 -5 -18 -36 -40 -71 -22 -35 -40 -65 -40 -68 0 -2 -17 -33 -38 -67 -21 -35 -52 -89 -69 -119 -17 -30 -47 -84 -68 -120 -21 -36 -46 -81 -57 -100 -11 -19 -29 -47 -39 -62 -11 -14 -19 -28 -19 -31 0 -3 -36 -69 -80 -147 -90 -158 -90 -154 -12 -192 26 -12 65 -36 87 -53 22 -16 63 -41 90 -55 28 -14 53 -29 56 -34 12 -15 191 -106 210 -106 5 0 33 -16 63 -35 30 -19 61 -32 68 -30 12 5 65 79 94 130 6 11 23 43 39 70 15 28 42 75 60 105 101 171 197 338 254 440 77 138 97 173 132 228 20 31 47 77 61 102 28 49 35 62 132 229 36 62 66 116 66 118 0 2 14 24 30 48 17 25 47 75 67 112 19 38 48 87 64 110 16 23 29 44 29 46 0 3 25 49 55 102 30 54 55 100 55 102 0 2 14 24 30 48 17 24 30 46 30 49 0 3 16 30 35 60 19 30 35 58 35 61 0 4 9 20 20 35 11 16 33 52 49 82 15 29 49 88 74 131 26 43 47 81 47 84 0 2 14 25 31 49 17 25 49 84 71 130 51 110 80 125 82 43 1 -25 7 -45 17 -53 9 -6 16 -25 16 -41 0 -69 7 -135 15 -135 4 0 8 -14 8 -31 0 -17 4 -28 10 -24 14 9 13 -8 -2 -23 -9 -9 -9 -12 0 -12 7 0 12 -5 12 -11 0 -6 10 -20 23 -31 12 -11 16 -16 8 -12 -11 5 -12 1 -7 -22 4 -16 7 -35 8 -41 1 -7 5 -13 10 -13 5 0 6 -4 3 -10 -4 -6 6 -10 24 -10 16 0 31 -4 33 -9 2 -6 37 -1 82 9 127 31 472 100 496 100 18 0 21 -4 16 -22 -3 -13 -9 -54 -12 -93 -3 -38 -9 -101 -14 -140 -5 -38 -12 -98 -15 -133 -4 -34 -10 -64 -14 -66 -3 -3 -8 -37 -10 -77 -1 -41 -6 -80 -10 -87 -4 -8 -6 -35 -4 -60 l4 -47 -57 -40 c-31 -22 -123 -89 -205 -150 -82 -60 -208 -154 -281 -207 -338 -248 -519 -385 -535 -406 -10 -13 -10 -19 2 -32 8 -9 12 -20 8 -23 -3 -4 4 -7 17 -7 19 0 21 -3 12 -12 -10 -10 -17 -10 -32 0 -38 24 -12 -33 42 -92 10 -11 18 -23 18 -28 0 -13 55 -9 69 5 8 7 11 7 8 1 -6 -11 7 -29 28 -36 5 -1 10 -11 10 -21 2 -15 0 -16 -15 -2 -9 8 -31 15 -49 15 l-33 0 34 -42 c18 -23 38 -49 43 -58 6 -9 19 -30 30 -48 21 -33 49 -42 58 -18 3 7 0 19 -6 25 -8 8 -8 11 0 11 6 0 17 -7 24 -16 11 -14 11 -18 -5 -29 -16 -12 -16 -15 -1 -44 8 -17 19 -31 23 -31 5 0 18 -17 30 -39 35 -62 48 -68 79 -40 14 13 23 18 19 12 -13 -22 14 -14 59 18 24 17 45 40 48 50 4 16 0 15 -32 -8 -20 -15 -32 -23 -28 -18 11 13 193 153 341 262 65 49 149 111 186 138 37 28 146 107 241 177 96 70 246 181 334 247 88 66 234 174 325 240 91 66 199 147 240 180 72 58 135 95 151 89 5 -2 -18 -33 -49 -69 -70 -82 -115 -135 -144 -173 -13 -16 -57 -70 -98 -121 -41 -51 -97 -123 -125 -160 -27 -36 -61 -78 -75 -92 l-24 -26 38 -31 c21 -17 66 -56 100 -86 118 -105 220 -184 273 -211 25 -13 50 -30 56 -39 7 -8 21 -23 32 -32 20 -17 22 -16 56 15 19 18 57 61 85 97 27 36 51 67 54 70 26 25 114 139 120 156 5 12 18 24 30 27 l23 6 -5 -137 c-4 -119 -8 -144 -30 -192 -22 -49 -26 -73 -31 -213 -5 -133 -4 -159 8 -164 8 -3 15 -12 15 -19 0 -8 10 -18 23 -23 28 -12 330 -32 497 -34 l124 -2 6 25 c6 25 6 25 165 33 88 4 186 8 217 7 32 -1 67 4 78 10 13 7 26 8 33 2 7 -5 74 -6 167 -1 213 10 332 10 350 -1 11 -7 12 -14 4 -32 -12 -24 -40 -104 -54 -150 -8 -24 -5 -28 31 -42 22 -9 45 -16 52 -16 8 0 56 -19 108 -41 105 -46 231 -89 263 -89 12 0 41 -9 65 -20 65 -30 75 -27 104 33 14 28 28 61 30 72 3 11 15 46 27 79 11 32 19 65 15 74 -3 8 1 20 8 26 13 11 51 102 94 231 44 130 77 224 103 290 4 11 18 49 30 85 11 36 25 74 29 85 14 36 43 119 48 140 3 11 11 34 18 50 8 17 32 84 54 150 23 66 45 129 50 140 25 56 32 86 27 112 -5 24 -1 31 31 52 l38 24 -22 -25 c-13 -13 -23 -29 -23 -36 0 -11 159 -150 255 -223 62 -47 80 -46 120 7 14 19 45 53 68 77 36 36 92 99 139 157 7 9 31 43 52 75 22 33 54 73 73 89 18 16 33 35 33 42 0 23 -68 91 -199 199 -70 57 -166 138 -216 180 -49 42 -121 102 -160 133 -38 31 -141 118 -228 192 -88 74 -175 148 -195 165 -86 70 -269 221 -292 241 -55 47 -182 152 -241 199 -35 28 -105 85 -156 128 -80 67 -96 76 -113 67 -20 -10 -24 -21 -21 -48 4 -25 -42 -1 -96 49 -28 27 -58 49 -65 49 -16 1 -68 45 -68 59 0 6 -9 15 -20 21 -11 6 -20 14 -20 19 0 7 250 36 310 36 17 0 18 -32 5 -101 -6 -37 -5 -43 14 -49 11 -3 21 -15 21 -25 0 -21 46 -40 99 -40 20 0 77 -7 126 -16 50 -8 146 -17 215 -19 69 -3 146 -7 171 -11 44 -5 47 -4 56 23 6 15 17 86 25 156 8 70 19 132 24 137 5 5 38 11 74 14 63 6 286 25 540 46 237 20 230 19 241 47 5 13 6 29 3 35 -4 6 -8 56 -10 112 -2 56 -5 119 -7 141 -3 22 -8 69 -12 105 -3 36 -11 74 -16 85 -5 11 -10 51 -11 90 l-3 69 -35 3 c-37 2 -324 -19 -555 -41 -77 -8 -144 -11 -149 -9 -5 3 -5 31 -1 62 5 31 9 90 9 131 l1 75 -90 8 c-49 5 -99 8 -110 8 -62 -2 -100 1 -114 9 -28 14 -176 23 -198 12 -13 -8 -23 -8 -30 -1 -6 6 -31 7 -62 3 -40 -5 -51 -10 -46 -21 3 -11 1 -13 -10 -10 -17 7 -26 -32 -25 -108 1 -27 -2 -88 -7 -135 l-8 -84 -35 -8 c-19 -4 -80 -10 -135 -13 -55 -4 -163 -11 -239 -16 -77 -5 -143 -6 -147 -2 -4 5 -3 79 3 167 6 105 7 161 0 168 -6 6 -26 10 -46 10 -31 0 -34 2 -21 15 9 8 13 19 10 24 -10 15 -52 10 -59 -6 -7 -18 5 -20 22 -3 14 14 16 0 3 -21 -6 -9 -18 -11 -42 -5 -19 4 -63 9 -99 11 -36 1 -105 7 -155 11 -55 6 -97 6 -108 0 -11 -5 -30 -7 -44 -3 -14 3 -45 3 -68 -1 -34 -5 -45 -11 -48 -28 -4 -19 -4 -19 -6 3 -1 24 -2 24 -15 6 -9 -13 -11 -25 -5 -37 6 -11 5 -18 -4 -21 -9 -4 -9 -6 1 -6 13 -1 18 -81 5 -81 -9 0 -13 -35 -12 -90 0 -19 -3 -67 -6 -106 l-6 -71 -72 -6 c-377 -32 -676 -62 -729 -73 -24 -5 -27 -9 -21 -37 3 -18 11 -36 17 -40 8 -6 7 -10 -2 -14 -6 -2 -9 -9 -6 -15 4 -5 8 -33 9 -61 1 -29 5 -95 7 -147 6 -110 15 -164 35 -202 9 -19 10 -28 2 -28 -14 0 -2 -56 18 -87 22 -33 43 -36 171 -24 65 6 173 15 242 20 69 6 159 13 200 16 l76 6 -4 -100 c-4 -93 -3 -101 14 -102 11 -1 46 -3 79 -5 33 -1 84 -9 113 -17 l54 -13 -29 -35 c-15 -18 -33 -41 -40 -49 -105 -132 -356 -442 -368 -456 -5 -6 -21 -26 -35 -44 -14 -19 -43 -55 -65 -81 -53 -63 -118 -142 -216 -267 -71 -89 -83 -101 -98 -90 -29 24 -50 53 -61 86 -7 17 -16 32 -21 32 -4 0 -16 15 -25 33 -15 28 -89 121 -135 168 -9 9 -30 37 -48 62 -18 26 -38 47 -46 47 -8 0 -48 -24 -89 -52 -41 -29 -119 -84 -173 -122 -54 -38 -99 -73 -101 -78 -6 -13 -32 -9 -32 5 1 60 23 258 32 280 6 15 20 29 32 32 11 2 79 16 149 30 251 49 502 107 509 118 8 14 3 57 -8 65 -5 4 -10 25 -11 47 -3 77 -49 304 -74 367 -12 29 -22 78 -23 108 l-2 55 -49 -3 c-63 -4 -234 -35 -345 -61 -91 -22 -102 -19 -95 29 13 82 26 200 35 305 5 66 19 188 30 270 11 83 23 204 26 270 3 66 10 135 15 154 9 39 -2 61 -32 61 -15 0 -17 5 -12 30 l6 30 -69 1 c-60 1 -102 5 -214 23 -14 3 -39 8 -56 11 -19 4 -34 3 -38 -4 -5 -8 -13 -7 -29 2 -14 8 -57 13 -114 12 -50 0 -89 3 -86 8 7 12 -24 8 -35 -5 -12 -17 -19 -52 -38 -221 -13 -113 -14 -143 -4 -162 13 -24 13 -28 -11 -230 -6 -49 -14 -130 -19 -180 -5 -49 -13 -133 -19 -185 -6 -52 -13 -122 -16 -155 -3 -33 -10 -76 -15 -95 -6 -19 -10 -59 -10 -87 0 -29 -2 -53 -4 -53 -23 0 -733 -151 -779 -166 -15 -5 -16 -2 -5 23 6 15 18 36 26 45 18 22 46 71 78 138 14 30 31 62 38 70 13 14 35 54 114 200 19 36 44 78 55 94 25 36 14 58 -34 67 -18 4 -35 12 -37 18 -2 6 -9 11 -16 11 -7 0 -33 15 -57 33 -24 18 -52 31 -61 29 -11 -2 -18 3 -18 12 0 9 3 15 8 15 26 -4 33 1 19 15 -8 8 -23 13 -33 11 -10 -2 -23 -4 -27 -4 -5 -1 -5 -6 -2 -11 4 -6 11 -7 17 -4 7 4 8 2 4 -5 -5 -8 -16 -5 -37 9 -33 24 -39 36 -9 20 17 -9 20 -8 20 7 -1 10 -23 36 -50 58 -28 22 -50 46 -50 53 0 12 -10 15 -45 13 -17 -2 -17 0 -5 8 21 15 -32 15 -82 1 -47 -14 -80 1 -76 33 2 16 -2 21 -13 19 -11 -1 -19 7 -23 23 -8 31 -32 33 -42 3 -4 -13 -20 -39 -36 -58 -26 -32 -27 -36 -12 -47 21 -15 15 -18 -76 -33 -36 -6 -110 -22 -165 -35 -55 -13 -120 -27 -145 -30 -25 -3 -103 -19 -175 -36 -71 -16 -164 -35 -205 -43 -41 -7 -162 -32 -268 -55 -106 -22 -199 -41 -207 -41 -23 0 -18 31 16 101 33 67 39 82 59 139 7 19 20 53 30 75 110 240 113 249 105 276 -5 15 -4 19 4 15 11 -7 81 124 81 150 0 18 -24 33 -61 38 -43 6 -69 16 -69 27 0 12 17 11 25 -1 9 -15 66 -8 73 8 7 20 -18 40 -58 47 -19 3 -59 19 -90 35 -131 69 -269 130 -294 130 -14 0 -26 5 -26 11 0 7 -10 9 -25 7 -14 -3 -25 -1 -25 3 0 5 -12 12 -27 16 -16 3 -41 15 -58 25 -39 23 -41 23 -70 -8z m70 -64 c4 -6 -5 -9 -19 -8 -15 1 -26 6 -26 10 0 12 38 10 45 -2z m65 -10 c12 -8 11 -10 -7 -10 -13 0 -23 5 -23 10 0 13 11 13 30 0z m96 -29 c5 -5 40 -19 77 -31 53 -17 66 -25 57 -34 -9 -8 -14 -8 -17 2 -3 6 -10 12 -17 12 -7 0 -39 11 -72 24 -36 15 -70 22 -87 19 -16 -3 -27 -1 -27 6 0 13 72 15 86 2z m174 -91 c8 -5 12 -11 9 -14 -3 -3 -14 1 -25 9 -21 16 -8 20 16 5z m-460 -10 c0 -5 -5 -10 -11 -10 -5 0 -7 5 -4 10 3 6 8 10 11 10 2 0 4 -4 4 -10z m525 -20 c3 -5 2 -10 -4 -10 -5 0 -13 5 -16 10 -3 6 -2 10 4 10 5 0 13 -4 16 -10z m40 0 c3 -6 -1 -7 -9 -4 -18 7 -21 14 -7 14 6 0 13 -4 16 -10z m-581 -25 c-4 -8 -8 -15 -10 -15 -2 0 -4 7 -4 15 0 8 4 15 10 15 5 0 7 -7 4 -15z m626 5 c8 -5 12 -11 9 -14 -3 -3 -14 1 -25 9 -21 16 -8 20 16 5z m2527 4 c-3 -3 -12 -4 -19 -1 -8 3 -5 6 6 6 11 1 17 -2 13 -5z m64 -10 c-18 -8 -38 -13 -45 -11 -6 3 5 9 24 15 50 15 60 13 21 -4z m129 0 c0 -2 -11 -4 -25 -4 -14 0 -25 4 -25 9 0 4 11 6 25 3 14 -2 25 -6 25 -8z m-237 -1 c-7 -2 -21 -2 -30 0 -10 3 -4 5 12 5 17 0 24 -2 18 -5z m454 -30 c-4 -3 -19 -2 -34 2 l-28 8 30 6 c28 6 45 -3 32 -16z m-107 7 c0 -12 -27 -12 -55 0 -16 7 -13 9 18 9 20 1 37 -3 37 -9z m-3489 -33 c-10 -9 -11 -8 -5 6 3 10 9 15 12 12 3 -3 0 -11 -7 -18z m3059 -138 c0 -5 -4 -9 -10 -9 -5 0 -10 7 -10 16 0 8 5 12 10 9 6 -3 10 -10 10 -16z m-10 -44 c0 -14 -4 -25 -10 -25 -5 0 -10 11 -10 25 0 14 5 25 10 25 6 0 10 -11 10 -25z m-1200 -283 c0 -4 -9 -8 -19 -8 -11 0 -17 4 -15 8 3 4 12 8 20 8 8 0 14 -4 14 -8z m310 -132 c0 -5 -4 -10 -9 -10 -6 0 -13 5 -16 10 -3 6 1 10 9 10 9 0 16 -4 16 -10z m-921 -832 c0 -7 -9 -26 -20 -43 -10 -16 -22 -37 -26 -45 -3 -8 -23 -41 -44 -72 -20 -31 -40 -66 -44 -78 -4 -12 -28 -56 -53 -98 -26 -42 -54 -90 -61 -107 -8 -16 -25 -43 -37 -60 -11 -16 -31 -49 -42 -72 -36 -69 -26 -76 -146 109 -31 48 -56 90 -56 94 0 3 -21 34 -46 70 -30 42 -53 64 -66 64 -10 0 -28 5 -39 11 -25 13 -47 6 -81 -26 -15 -14 -71 -48 -125 -77 -117 -61 -209 -118 -243 -151 -26 -25 -97 -75 -138 -96 -21 -11 -22 -11 -16 16 4 15 11 32 15 37 5 6 9 16 9 23 0 7 11 31 25 53 14 22 25 45 25 51 0 7 14 41 30 76 17 34 30 67 30 72 0 19 29 30 125 50 55 11 199 41 320 66 121 25 285 59 365 75 80 17 181 39 225 49 99 23 115 24 114 9z m4466 -298 c95 -76 110 -91 97 -99 -7 -4 -49 -8 -95 -9 -78 -2 -132 -8 -169 -19 -10 -2 -18 0 -18 5 0 5 8 18 18 29 44 52 78 98 84 114 11 28 28 23 83 -21z m-4285 -310 c-6 -11 -13 -20 -16 -20 -2 0 0 9 6 20 6 11 13 20 16 20 2 0 0 -9 -6 -20z m4840 -151 c14 -16 66 -61 116 -101 172 -137 254 -210 248 -219 -3 -5 -55 -9 -115 -9 -60 0 -288 -11 -507 -24 -218 -14 -455 -27 -527 -31 -71 -3 -221 -10 -331 -16 -111 -7 -207 -10 -214 -7 -8 2 -6 10 7 26 20 25 63 30 636 67 480 32 610 45 631 64 15 16 16 22 6 41 -7 13 -12 55 -11 94 1 39 -4 85 -10 103 -6 18 -7 37 -4 43 10 16 47 1 75 -31z m747 -703 c-13 -10 -14 -15 -6 -18 9 -3 7 -7 -5 -11 -10 -4 -15 -3 -11 3 3 6 0 10 -7 10 -8 1 -6 6 6 15 11 8 25 15 30 15 6 0 3 -7 -7 -14z m-61 -82 c-23 -16 -50 -19 -41 -4 4 6 10 8 15 5 4 -3 13 2 20 10 7 9 16 13 19 9 3 -3 -3 -12 -13 -20z m-56 -24 c0 -5 -4 -10 -10 -10 -5 0 -10 5 -10 10 0 6 5 10 10 10 6 0 10 -4 10 -10z m-20 -27 c0 -5 -11 -8 -25 -8 -14 0 -25 3 -25 8 0 4 11 7 25 7 14 0 25 -3 25 -7z m-70 -37 c0 -3 -4 -8 -10 -11 -5 -3 -10 -1 -10 4 0 6 5 11 10 11 6 0 10 -2 10 -4z m30 -6 c0 -5 -5 -10 -11 -10 -5 0 -7 5 -4 10 3 6 8 10 11 10 2 0 4 -4 4 -10z m-45 -40 c-10 -11 -21 -17 -24 -13 -3 4 -10 11 -16 16 -6 5 0 6 12 2 12 -3 24 -1 28 5 3 5 9 10 12 10 3 0 -2 -9 -12 -20z m-65 -66 c0 -11 -63 -44 -72 -38 -9 6 -5 10 12 14 14 4 24 12 23 18 -2 6 6 10 17 9 11 -1 20 -2 20 -3z m-478 -34 c-1 -12 -9 -36 -17 -54 -7 -17 -19 -50 -25 -73 -10 -41 -13 -43 -48 -43 -20 0 -212 -7 -427 -15 -214 -8 -470 -15 -568 -15 l-177 0 4 72 c4 65 7 73 28 80 13 4 156 12 318 18 268 9 565 28 805 49 109 10 111 9 107 -19z m307 17 c-2 -1 -13 -9 -24 -17 -19 -14 -19 -14 -6 3 7 9 18 17 24 17 6 0 8 -1 6 -3z m65 -41 c-10 -8 -21 -12 -24 -10 -5 6 21 24 34 24 6 0 1 -6 -10 -14z m-154 -21 c-7 -8 -18 -15 -24 -15 -6 0 -2 7 8 15 25 19 32 19 16 0z m160 -9 c0 -2 -7 -7 -16 -10 -8 -3 -12 -2 -9 4 6 10 25 14 25 6z m-212 -30 c-10 -7 -14 -17 -11 -22 4 -5 1 -3 -7 4 -13 12 -13 15 4 28 11 7 22 11 25 8 3 -3 -2 -11 -11 -18z m148 -8 c4 -7 3 -8 -5 -4 -6 4 -18 2 -26 -4 -8 -7 -15 -8 -15 -3 0 23 33 32 46 11z m-176 -35 c0 -3 -9 -3 -19 0 -14 3 -30 -6 -51 -29 -17 -19 -35 -32 -40 -29 -4 3 -20 -9 -35 -27 -20 -24 -29 -28 -35 -18 -6 9 3 20 26 37 19 12 39 23 43 23 5 0 23 13 41 29 20 17 40 26 51 24 11 -3 19 -8 19 -10z m80 -18 c0 -2 -10 -9 -22 -15 -22 -11 -22 -10 -4 4 21 17 26 19 26 11z m-70 -85 c-33 -23 -50 -30 -50 -23 0 5 10 13 23 19 28 15 47 17 27 4z m-205 -10 c-3 -5 -10 -10 -16 -10 -5 0 -9 5 -9 10 0 6 7 10 16 10 8 0 12 -4 9 -10z m-50 -29 c-3 -6 -11 -11 -17 -11 -6 0 -6 6 2 15 14 17 26 13 15 -4z m175 -5 c0 -2 -8 -10 -17 -17 -16 -13 -17 -12 -4 4 13 16 21 21 21 13z m-280 -71 c-7 -9 -15 -13 -19 -10 -3 3 1 10 9 15 21 14 24 12 10 -5z m-20 -50 c0 -10 -10 -15 -27 -15 -27 1 -27 1 -9 15 25 19 36 19 36 0z m-112 -55 c-7 -12 -24 -23 -38 -27 -14 -3 -36 -14 -50 -23 -35 -24 -50 -32 -50 -27 0 6 135 95 148 97 1 0 -3 -9 -10 -20z m-3981 -66 c-3 -3 -12 -4 -19 -1 -8 3 -5 6 6 6 11 1 17 -2 13 -5z m47 -3 c4 -5 -1 -8 -9 -7 -21 3 -31 16 -12 16 9 0 18 -4 21 -9z m3773 -26 c0 -8 -4 -15 -9 -15 -4 0 -8 7 -8 15 0 8 4 15 8 15 5 0 9 -7 9 -15z m-54 -32 c-5 -12 -8 -13 -11 -4 -3 8 -8 5 -16 -10 -6 -12 -22 -29 -36 -37 -21 -12 -20 -11 4 10 16 14 26 30 23 35 -7 11 6 21 30 22 8 1 10 -6 6 -16z m-3753 -53 c0 -5 -2 -10 -4 -10 -3 0 -8 5 -11 10 -3 6 -1 10 4 10 6 0 11 -4 11 -10z m3474 -34 c-21 -15 -30 -14 -19 3 3 6 14 11 23 11 13 0 13 -2 -4 -14z m143 -31 c0 -8 -4 -15 -9 -15 -10 0 -11 14 -1 23 9 10 10 9 10 -8z m-3533 -24 c-2 -3 -12 3 -22 13 -16 17 -16 18 5 5 12 -7 20 -15 17 -18z m3463 -19 c-1 -14 -7 -17 -29 -14 -34 5 -35 10 -5 22 32 13 36 12 34 -8z m-3438 -16 c9 -11 7 -13 -13 -13 -20 0 -22 2 -13 13 15 16 13 16 26 0z m51 -41 c20 -24 6 -28 -15 -5 -10 11 -13 20 -8 20 6 0 16 -7 23 -15z m47 2 c0 -8 -6 -14 -14 -14 -14 0 -17 10 -6 20 10 11 20 8 20 -6z m3220 -12 c-15 -14 -33 -25 -40 -25 -7 1 2 12 18 25 39 32 58 32 22 0z" />
<path d="M12123 8179 c-2 -21 25 -25 62 -9 18 8 17 9 -8 9 -16 1 -26 5 -23 9 2 4 -3 8 -13 9 -10 1 -17 -6 -18 -18z" />
<path d="M12374 8182 c3 -5 22 -9 42 -10 21 -1 42 -6 48 -12 5 -5 14 -10 20 -10 5 0 1 8 -10 18 -19 17 -110 30 -100 14z" />
<path d="M12544 8164 c33 -8 69 -11 80 -7 16 5 9 9 -29 14 -88 13 -115 9 -51 -7z" />
<path d="M12518 8143 c7 -3 16 -2 19 1 4 3 -2 6 -13 5 -11 0 -14 -3 -6 -6z" />
<path d="M4664 7789 c-3 -6 -6 -33 -6 -62 1 -28 -3 -56 -7 -62 -8 -9 -12 -26 -25 -102 -2 -13 -1 -23 3 -23 11 0 -4 -101 -16 -108 -5 -4 -13 -36 -18 -72 -10 -82 -10 -97 0 -139 6 -25 5 -32 -3 -27 -9 5 -12 -9 -12 -51 1 -87 13 -97 135 -112 55 -7 136 -19 180 -26 44 -8 170 -28 280 -45 110 -17 243 -37 295 -45 133 -21 430 -64 520 -75 41 -6 116 -16 167 -23 150 -22 173 -10 173 91 0 26 9 76 20 110 11 35 20 77 20 94 0 16 5 38 10 49 6 10 12 74 14 142 2 67 9 138 15 157 19 60 16 66 -46 83 -32 9 -89 21 -128 27 -232 34 -999 150 -1125 170 -36 5 -135 19 -220 30 -85 11 -170 22 -187 24 -18 3 -35 0 -39 -5z" />
<path d="M9055 7590 c3 -5 13 -10 21 -10 8 0 14 5 14 10 0 6 -9 10 -21 10 -11 0 -17 -4 -14 -10z" />
<path d="M5715 6605 c-49 -18 -134 -48 -187 -67 -108 -38 -119 -45 -98 -58 13 -8 12 -10 0 -14 -8 -3 -71 -23 -140 -46 -69 -22 -226 -74 -350 -115 -150 -49 -227 -70 -231 -63 -11 18 -136 -6 -224 -42 -89 -36 -163 -63 -180 -64 -14 -1 -21 -9 -23 -29 -2 -15 -12 -32 -23 -37 -24 -14 -24 -40 1 -85 11 -20 20 -48 20 -64 0 -36 22 -106 51 -163 5 -10 9 -26 9 -35 0 -18 32 -109 50 -141 5 -9 16 -35 26 -57 9 -22 20 -49 25 -60 4 -11 10 -36 11 -55 l3 -35 55 1 c40 1 125 25 310 87 140 47 413 137 606 201 384 126 602 202 622 218 7 6 10 19 7 28 -4 12 1 19 15 23 26 7 27 50 0 105 -11 22 -20 54 -20 69 0 29 -17 83 -38 120 -7 12 -12 31 -12 43 0 11 -9 40 -20 62 -11 23 -20 48 -20 56 0 8 -13 40 -29 71 -35 68 -53 115 -56 144 -1 12 -3 25 -4 30 -2 15 -69 3 -156 -28z" />
<path d="M6109 5167 c-75 -56 -203 -151 -285 -212 -82 -60 -153 -113 -159 -117 -5 -4 -70 -51 -143 -105 -74 -54 -182 -134 -240 -179 -59 -44 -134 -99 -167 -122 -153 -107 -330 -250 -333 -268 -1 -11 17 -40 47 -71 27 -29 52 -64 55 -78 4 -14 21 -42 40 -63 18 -20 39 -48 46 -62 17 -32 80 -109 147 -180 29 -30 60 -72 69 -92 9 -21 20 -38 24 -38 26 0 150 88 617 435 133 99 270 201 305 227 34 25 72 53 83 62 28 21 225 168 252 186 60 42 250 189 261 202 11 13 8 20 -18 44 -16 16 -30 35 -30 41 0 7 -3 13 -7 13 -5 0 -19 17 -33 37 -14 21 -44 58 -68 83 -24 25 -46 57 -49 71 -2 14 -17 39 -32 55 -14 16 -41 48 -60 72 -18 23 -43 45 -56 48 -13 3 -22 11 -19 17 2 7 0 17 -4 22 -9 13 -94 75 -101 74 -4 0 -67 -46 -142 -102z" />
<path d="M9438 4135 c-48 -35 -64 -55 -30 -36 20 12 89 70 82 70 -3 0 -26 -15 -52 -34z" />
<path d="M5560 3002 c-10 -4 -14 -103 -4 -137 5 -19 14 -20 315 -22 l309 -1 0 73 0 74 -52 5 c-58 7 -552 13 -568 8z" />
<path d="M6657 2983 c-2 -5 -5 -38 -6 -75 l-1 -67 43 -6 c23 -4 47 -5 52 -4 6 2 120 0 255 -4 135 -4 258 -4 274 0 28 9 28 10 28 78 l0 70 -113 6 c-168 9 -527 10 -532 2z" />
<path d="M8425 2972 c-129 -4 -125 -1 -125 -81 0 -45 5 -72 14 -80 15 -13 190 -4 219 11 15 8 17 17 12 56 -13 104 -6 98 -120 94z" />
<path d="M12786 2968 c-11 -34 -15 -96 -8 -122 l8 -29 147 -4 147 -4 0 75 0 75 -42 5 c-24 3 -89 8 -146 11 -80 5 -103 4 -106 -7z" />
<path d="M4618 2961 c-119 -3 -219 -9 -223 -13 -9 -9 -14 -77 -8 -115 l6 -33 291 1 c160 1 305 4 321 8 25 5 31 11 33 41 2 19 1 53 -2 75 l-7 40 -97 1 c-53 0 -195 -2 -314 -5z" />
<path d="M7847 2949 c-11 -40 -8 -104 6 -122 10 -14 38 -18 154 -23 l142 -7 -2 71 c-1 39 -7 76 -12 81 -6 6 -72 14 -146 17 l-136 7 -6 -24z" />
<path d="M9075 2956 c-13 -9 -15 -26 -13 -81 l3 -70 146 -3 c134 -2 147 -1 151 16 7 24 -6 121 -18 131 -15 14 -250 21 -269 7z" />
<path d="M11586 2961 c-4 -6 -4 -15 -1 -21 3 -5 2 -10 -4 -10 -11 0 -8 -74 4 -102 5 -13 18 -18 49 -18 22 0 169 -2 325 -5 226 -5 286 -3 293 7 13 21 9 113 -6 134 -14 18 -31 19 -334 22 -224 3 -322 1 -326 -7z" />
<path d="M13266 2939 c-12 -60 -7 -108 12 -118 10 -5 78 -11 151 -12 106 -2 135 1 141 12 4 8 5 42 3 75 l-5 61 -52 7 c-28 3 -94 6 -147 6 l-96 0 -7 -31z" />
<path d="M14091 2960 c-12 -8 -21 -122 -11 -140 10 -18 -16 -17 458 -23 l263 -4 -3 76 -3 76 -41 6 c-47 8 -652 16 -663 9z" />
<path d="M5558 2804 c-11 -21 -8 -120 4 -135 11 -14 58 -18 313 -28 341 -13 325 -17 325 69 0 77 1 77 -220 84 -107 3 -245 9 -306 12 -62 4 -113 3 -116 -2z" />
<path d="M10597 2793 c-5 -8 -11 -86 -8 -115 3 -36 29 -48 111 -48 43 0 90 4 105 10 25 9 26 13 23 77 -3 62 -5 68 -28 74 -34 10 -198 11 -203 2z" />
<path d="M12782 2745 c-10 -15 -10 -75 -1 -115 l8 -35 381 0 381 0 -3 77 -3 77 -378 3 c-245 2 -381 -1 -385 -7z" />
<path d="M14299 2733 c-12 -32 -11 -46 3 -93 l13 -40 147 0 c117 0 149 3 155 14 4 8 7 43 5 78 l-4 63 -155 1 -155 1 -9 -24z" />
<path d="M5572 2598 c-12 -12 -16 -96 -6 -135 l6 -23 314 0 c244 0 314 3 315 13 3 28 -3 132 -8 137 -2 3 -127 5 -276 5 -150 1 -286 4 -302 8 -20 5 -35 3 -43 -5z" />
<path d="M4420 2591 c-21 -6 -25 -14 -28 -52 -2 -24 1 -57 7 -72 l11 -27 310 0 c240 0 312 3 315 13 2 6 6 42 9 78 l4 66 -301 1 c-166 0 -313 -3 -327 -7z" />
<path d="M11596 2593 c-3 -3 -6 -41 -6 -84 l0 -77 203 -7 c111 -3 267 -5 347 -3 l145 3 13 63 c6 35 8 70 4 78 -7 13 -63 16 -347 20 -186 3 -341 7 -345 9 -4 2 -10 2 -14 -2z" />
<path d="M7849 2586 c-6 -3 -5 -147 1 -151 4 -3 147 -8 317 -11 237 -5 314 -4 332 6 21 11 23 17 19 77 -3 42 -9 68 -19 73 -10 7 -636 12 -650 6z" />
<path d="M9482 2581 c-9 -5 -12 -30 -10 -82 l3 -74 159 -3 158 -3 -4 71 c-2 38 -8 74 -13 79 -13 11 -277 22 -293 12z" />
<path d="M6880 2561 c-5 -11 -10 -46 -10 -79 l0 -59 104 -6 c58 -4 118 -4 134 -1 28 6 29 8 31 68 1 41 -3 67 -11 73 -7 6 -63 13 -125 17 -105 6 -113 5 -123 -13z" />
<path d="M13254 2539 c-13 -14 -15 -31 -12 -74 3 -30 7 -57 9 -60 8 -7 305 -9 317 -1 7 4 9 29 5 74 -3 37 -7 68 -8 70 -2 2 -68 4 -148 6 -132 3 -148 2 -163 -15z" />
<path d="M14400 2550 l-325 -5 0 -70 0 -70 375 0 375 0 3 69 c3 79 -2 87 -63 84 -22 -2 -186 -5 -365 -8z" />
</g>
</svg>